<svg width="20" height="30" viewBox="0 0 20 30" fill="none" xmlns="http://www.w3.org/2000/svg">
<path d="M5 30C7.7625 30 10 27.7625 10 25V20H5C2.2375 20 0 22.2375 0 25C0 27.7625 2.2375 30 5 30Z" fill="black"/>
<path d="M0 15C0 12.2375 2.2375 10 5 10H10V20H5C2.2375 20 0 17.7625 0 15Z" fill="black"/>
<path d="M0 5.00003C0 2.23753 2.2375 3.05176e-05 5 3.05176e-05L10 3.05176e-05V10H5C2.2375 10 0 7.76253 0 5.00003Z" fill="black"/>
<path d="M10 3.05176e-05L15 3.05176e-05C17.7625 3.05176e-05 20 2.23753 20 5.00003C20 7.76253 17.7625 10 15 10H10V3.05176e-05Z" fill="black"/>
<path d="M20 15C20 17.7625 17.7625 20 15 20C12.2375 20 10 17.7625 10 15C10 12.2375 12.2375 10 15 10C17.7625 10 20 12.2375 20 15Z" fill="black"/>
</svg>
