<svg width="106" height="51" viewBox="0 0 106 51" fill="none" xmlns="http://www.w3.org/2000/svg">
<path d="M17.2207 35.708C17.2207 35.9359 17.1637 36.123 17.0498 36.2695C16.9359 36.416 16.7894 36.5299 16.6104 36.6113C16.4476 36.709 16.2604 36.7741 16.0488 36.8066C15.8535 36.8555 15.6745 36.8799 15.5117 36.8799C14.9421 36.8799 14.4456 36.7171 14.0225 36.3916C13.5993 36.0661 13.2331 35.6429 12.9238 35.1221C12.6309 34.6175 12.3786 34.0397 12.167 33.3887C11.9717 32.7214 11.8089 32.0622 11.6787 31.4111C11.5485 30.7438 11.4508 30.109 11.3857 29.5068C11.3206 28.8883 11.2718 28.3594 11.2393 27.9199C11.0928 26.4062 10.987 24.8682 10.9219 23.3057C10.873 21.7432 10.8486 20.1969 10.8486 18.667C10.8486 16.6325 10.8812 14.6387 10.9463 12.6855C11.0114 10.7161 11.109 8.72233 11.2393 6.7041C11.0928 6.55762 10.9056 6.40299 10.6777 6.24023C10.4499 6.0612 10.165 5.89844 9.82324 5.75195C9.48145 5.60547 9.08268 5.4834 8.62695 5.38574C8.1875 5.27181 7.6748 5.21484 7.08887 5.21484C6.55176 5.36133 6.09603 5.6543 5.72168 6.09375C5.36361 6.5332 5.07064 7.07031 4.84277 7.70508C4.63118 8.32357 4.47656 9.00716 4.37891 9.75586C4.28125 10.5046 4.23242 11.2533 4.23242 12.002L4.5498 17.251C5.24967 17.1208 5.93327 16.958 6.60059 16.7627C7.2679 16.5674 7.9515 16.4697 8.65137 16.4697C9.04199 16.4697 9.31055 16.5755 9.45703 16.7871C9.61979 16.9987 9.70117 17.2673 9.70117 17.5928C9.70117 17.9183 9.66048 18.2194 9.5791 18.4961C9.49772 18.7728 9.32682 19.0007 9.06641 19.1797C8.90365 19.2773 8.64323 19.3669 8.28516 19.4482C7.92708 19.5296 7.53646 19.6029 7.11328 19.668C6.70638 19.7331 6.29948 19.79 5.89258 19.8389C5.50195 19.8877 5.17643 19.9284 4.91602 19.9609H4.79395C5.11947 22.7604 5.39616 25.1286 5.62402 27.0654C5.85189 28.986 6.03906 30.5811 6.18555 31.8506C6.34831 33.1038 6.47038 34.0885 6.55176 34.8047C6.64941 35.5046 6.71452 36.0254 6.74707 36.3672C6.7959 36.7253 6.82031 36.9531 6.82031 37.0508C6.83659 37.1484 6.84473 37.2298 6.84473 37.2949C6.84473 37.6367 6.73893 37.8727 6.52734 38.0029C6.31576 38.1494 6.05534 38.2227 5.74609 38.2227C5.53451 38.2227 5.2985 38.1982 5.03809 38.1494C4.77767 38.1169 4.52539 38.0599 4.28125 37.9785C4.03711 37.8971 3.81738 37.7832 3.62207 37.6367C3.44303 37.4902 3.31283 37.3112 3.23145 37.0996C3.13379 35.6999 2.99544 34.2513 2.81641 32.7539C2.63737 31.2402 2.45833 29.751 2.2793 28.2861C2.10026 26.8213 1.9375 25.4134 1.79102 24.0625C1.64453 22.7116 1.53874 21.4827 1.47363 20.376C1.40853 20.3923 1.34342 20.4004 1.27832 20.4004C1.22949 20.3841 1.16439 20.376 1.08301 20.376C0.822591 20.376 0.602865 20.319 0.423828 20.2051C0.261068 20.0749 0.179688 19.847 0.179688 19.5215C0.179688 19.1471 0.269206 18.8053 0.448242 18.4961C0.627279 18.1868 0.903971 17.9834 1.27832 17.8857C1.24577 16.9906 1.19694 15.9977 1.13184 14.9072C1.06673 13.8167 1.04232 12.71 1.05859 11.5869C1.09115 10.4476 1.1888 9.34896 1.35156 8.29102C1.5306 7.2168 1.83171 6.27279 2.25488 5.45898C2.69434 4.62891 3.29655 3.96159 4.06152 3.45703C4.8265 2.95247 5.8112 2.7002 7.01562 2.7002C7.94336 2.7002 8.75716 2.78158 9.45703 2.94434C10.1732 3.09082 10.8161 3.31055 11.3857 3.60352C11.4346 3.06641 11.4834 2.5944 11.5322 2.1875C11.5811 1.76432 11.6462 1.46322 11.7275 1.28418V1.30859C11.7926 1.08073 11.874 0.909831 11.9717 0.795898C12.0856 0.681966 12.2809 0.625 12.5576 0.625C13.1598 0.625 13.6562 0.820312 14.0469 1.21094C14.4538 1.60156 14.6572 2.08984 14.6572 2.67578C14.6572 3.8151 14.6247 4.94629 14.5596 6.06934C14.5107 7.19238 14.4538 8.31543 14.3887 9.43848C14.3398 10.5615 14.2829 11.6846 14.2178 12.8076C14.1689 13.9307 14.1445 15.0618 14.1445 16.2012C14.1445 16.8034 14.1527 17.5928 14.1689 18.5693C14.1852 19.5459 14.2178 20.612 14.2666 21.7676C14.3154 22.9069 14.3805 24.0869 14.4619 25.3076C14.5596 26.5283 14.6735 27.6921 14.8037 28.7988C14.9502 29.9056 15.1211 30.9066 15.3164 31.8018C15.528 32.6969 15.7803 33.3887 16.0732 33.877C16.2035 33.9421 16.3337 34.0479 16.4639 34.1943C16.6104 34.3245 16.7324 34.4792 16.8301 34.6582C16.944 34.821 17.0335 34.9919 17.0986 35.1709C17.18 35.3662 17.2207 35.5452 17.2207 35.708ZM28.5 24.9902C28.5 26.4062 28.3779 27.8223 28.1338 29.2383C27.9059 30.638 27.4258 31.9645 26.6934 33.2178C26.4655 33.5921 26.2051 33.9583 25.9121 34.3164C25.6191 34.6582 25.2936 34.9674 24.9355 35.2441C24.5938 35.5371 24.2113 35.765 23.7881 35.9277C23.3812 36.1068 22.9499 36.1963 22.4941 36.1963C21.778 36.1963 21.1514 36.0254 20.6143 35.6836C20.0934 35.3581 19.6377 34.9268 19.2471 34.3896C18.8727 33.8363 18.5553 33.2178 18.2949 32.5342C18.0508 31.8343 17.8555 31.1263 17.709 30.4102C17.5788 29.6777 17.4811 28.9697 17.416 28.2861C17.3672 27.6025 17.3428 27.0003 17.3428 26.4795C17.3428 25.8936 17.3672 25.2507 17.416 24.5508C17.4648 23.8509 17.5462 23.1348 17.6602 22.4023C17.7904 21.6699 17.9531 20.9456 18.1484 20.2295C18.36 19.5133 18.6286 18.846 18.9541 18.2275C19.2796 17.5928 19.6702 17.0312 20.126 16.543C20.5817 16.0384 21.1107 15.6396 21.7129 15.3467V15.3711C22.2337 15.0944 22.7546 14.9561 23.2754 14.9561C23.6009 14.9561 23.8532 15.0293 24.0322 15.1758C24.2113 15.306 24.2926 15.5339 24.2764 15.8594C25.1715 16.0221 25.8958 16.4535 26.4492 17.1533C27.0026 17.8532 27.4258 18.667 27.7188 19.5947C28.028 20.5225 28.2314 21.4746 28.3291 22.4512C28.443 23.4277 28.5 24.2741 28.5 24.9902ZM22.9824 18.8867C22.7057 18.8867 22.4453 18.7809 22.2012 18.5693C21.8919 19.0413 21.6315 19.5866 21.4199 20.2051C21.2083 20.8073 21.0374 21.4339 20.9072 22.085C20.7933 22.7197 20.7119 23.3626 20.6631 24.0137C20.6143 24.6647 20.5898 25.2751 20.5898 25.8447C20.5898 26.3167 20.6143 26.9271 20.6631 27.6758C20.7119 28.4082 20.8014 29.1488 20.9316 29.8975C21.0781 30.6462 21.2734 31.346 21.5176 31.9971C21.778 32.6481 22.1117 33.1283 22.5186 33.4375C23.0231 33.1445 23.4382 32.6807 23.7637 32.0459C24.1055 31.3949 24.374 30.6868 24.5693 29.9219C24.7646 29.1569 24.8949 28.3838 24.96 27.6025C25.0413 26.8213 25.082 26.154 25.082 25.6006C25.082 25.1937 25.0576 24.6647 25.0088 24.0137C24.96 23.3626 24.8786 22.7035 24.7646 22.0361C24.6507 21.3525 24.488 20.7178 24.2764 20.1318C24.0811 19.5459 23.8288 19.1064 23.5195 18.8135C23.373 18.8623 23.194 18.8867 22.9824 18.8867ZM38.9248 19.5703C38.9248 19.7005 38.9248 19.8307 38.9248 19.9609C38.9248 20.0749 38.9085 20.1888 38.876 20.3027C39.1201 21.1816 39.3398 22.0687 39.5352 22.9639C39.7467 23.8428 39.9502 24.7217 40.1455 25.6006C40.2432 24.6077 40.3245 23.6149 40.3896 22.6221C40.471 21.613 40.5117 20.612 40.5117 19.6191C40.5117 18.6426 40.4792 17.6497 40.4141 16.6406C40.349 15.6152 40.1862 14.6387 39.9258 13.7109L39.8281 13.3691C39.7956 13.2878 39.7712 13.1982 39.7549 13.1006C39.7386 13.0029 39.7305 12.9053 39.7305 12.8076C39.7305 12.6286 39.7712 12.4902 39.8525 12.3926C39.9502 12.2786 40.0641 12.1973 40.1943 12.1484C40.3245 12.0996 40.471 12.0671 40.6338 12.0508C40.7965 12.0345 40.943 12.0264 41.0732 12.0264C41.4801 12.0264 41.9033 12.0752 42.3428 12.1729C42.6357 12.2542 42.8717 12.3763 43.0508 12.5391C43.2298 12.6855 43.36 12.8646 43.4414 13.0762C43.5391 13.2878 43.6042 13.5238 43.6367 13.7842C43.6693 14.0283 43.6937 14.2806 43.71 14.541C43.71 14.5736 43.71 14.6061 43.71 14.6387C43.7262 14.6712 43.7344 14.7038 43.7344 14.7363C43.8158 15.4525 43.8727 16.1768 43.9053 16.9092C43.9541 17.6253 43.9785 18.3333 43.9785 19.0332C43.9785 21.2142 43.8483 23.387 43.5879 25.5518C43.3438 27.7165 43.0426 29.8649 42.6846 31.9971C42.6357 32.3226 42.5625 32.6562 42.4648 32.998C42.3835 33.3398 42.2614 33.6572 42.0986 33.9502C41.9359 34.2432 41.7243 34.4873 41.4639 34.6826C41.2035 34.8617 40.8779 34.9512 40.4873 34.9512C40.0479 34.9512 39.6898 34.8535 39.4131 34.6582C39.1364 34.4466 38.9085 34.1862 38.7295 33.877C38.5667 33.5514 38.4447 33.1934 38.3633 32.8027C38.2819 32.4121 38.2168 32.0296 38.168 31.6553C38.1354 31.4762 38.1029 31.3135 38.0703 31.167C38.054 31.0205 38.0296 30.8822 37.9971 30.752L37.3135 27.7246C37.1833 28.1803 37.0042 28.7581 36.7764 29.458C36.5648 30.1416 36.3288 30.8333 36.0684 31.5332C35.8242 32.2331 35.5719 32.8678 35.3115 33.4375C35.0674 34.0072 34.8639 34.3978 34.7012 34.6094C34.5221 34.821 34.2943 34.9837 34.0176 35.0977C33.7409 35.2279 33.4642 35.293 33.1875 35.293C32.6992 35.293 32.276 35.1383 31.918 34.8291C31.5924 34.5036 31.3809 34.1292 31.2832 33.7061C31.1855 33.2829 31.1123 32.8597 31.0635 32.4365C31.0635 32.404 31.0553 32.3633 31.0391 32.3145C31.0391 32.2656 31.0391 32.2249 31.0391 32.1924C30.7949 30.402 30.6159 28.5872 30.502 26.748C30.388 24.8926 30.3311 23.0452 30.3311 21.2061V17.1533C30.3311 17.0068 30.3392 16.8522 30.3555 16.6895C30.3717 16.5267 30.4043 16.3802 30.4531 16.25C30.5182 16.1035 30.6077 15.9896 30.7217 15.9082C30.8519 15.8268 31.0309 15.7861 31.2588 15.7861C31.861 15.7861 32.3574 15.9652 32.748 16.3232C33.1387 16.6813 33.3584 17.1533 33.4072 17.7393C33.4561 18.5205 33.4886 19.3099 33.5049 20.1074C33.5374 20.9049 33.5618 21.6943 33.5781 22.4756C33.5944 23.3708 33.6025 24.2415 33.6025 25.0879C33.6188 25.918 33.6758 26.7969 33.7734 27.7246C33.9688 27.0898 34.1559 26.4307 34.335 25.7471C34.514 25.0635 34.6686 24.3717 34.7988 23.6719C34.9453 22.972 35.0592 22.2803 35.1406 21.5967C35.2383 20.8968 35.2871 20.2214 35.2871 19.5703C35.2871 19.4889 35.279 19.4238 35.2627 19.375C35.2627 19.3099 35.2627 19.2367 35.2627 19.1553C35.2464 19.0739 35.2383 18.9925 35.2383 18.9111C35.2383 18.8298 35.2383 18.7484 35.2383 18.667C35.2383 18.2601 35.3278 17.959 35.5068 17.7637C35.6859 17.5684 35.9951 17.4707 36.4346 17.4707C36.5973 17.4707 36.7926 17.4951 37.0205 17.5439C37.2646 17.5928 37.5007 17.666 37.7285 17.7637C37.9727 17.8613 38.1924 17.9834 38.3877 18.1299C38.583 18.2764 38.7132 18.4391 38.7783 18.6182H38.7539C38.8353 18.7809 38.8841 18.9355 38.9004 19.082C38.9167 19.2285 38.9248 19.3913 38.9248 19.5703ZM56.5273 18.8867C56.5273 19.0495 56.5111 19.2204 56.4785 19.3994C56.446 19.5785 56.4134 19.7412 56.3809 19.8877C56.3483 20.0667 56.3158 20.2376 56.2832 20.4004C56.2507 20.5469 56.2344 20.6934 56.2344 20.8398C56.2344 22.3535 56.2588 23.8753 56.3076 25.4053C56.3727 26.9189 56.5355 28.4408 56.7959 29.9707C56.8773 30.5566 56.9749 31.1263 57.0889 31.6797C57.2028 32.2331 57.333 32.7946 57.4795 33.3643L57.5283 33.5107V33.4619C57.5771 33.5758 57.6178 33.6979 57.6504 33.8281C57.6992 33.9421 57.7236 34.0641 57.7236 34.1943C57.7236 34.3734 57.6748 34.5199 57.5771 34.6338C57.4958 34.7477 57.39 34.8372 57.2598 34.9023C57.1296 34.9674 56.9831 35.0081 56.8203 35.0244C56.6738 35.0407 56.5355 35.0488 56.4053 35.0488C55.8682 35.0488 55.4368 34.9919 55.1113 34.8779C54.8021 34.7477 54.5498 34.5768 54.3545 34.3652C54.1592 34.1374 54.0127 33.8688 53.915 33.5596C53.8337 33.2503 53.7604 32.9085 53.6953 32.5342L53.6221 32.0947C53.557 31.8669 53.5163 31.6227 53.5 31.3623C53.4837 31.2321 53.4674 31.1751 53.4512 31.1914C53.4512 31.1914 53.443 31.1263 53.4268 30.9961C53.1989 31.403 52.9303 31.8424 52.6211 32.3145C52.3281 32.7702 51.9863 33.2015 51.5957 33.6084C51.2214 33.999 50.8145 34.3327 50.375 34.6094C49.9355 34.8698 49.4635 35 48.959 35C48.2591 35 47.7139 34.7884 47.3232 34.3652C46.9489 33.9421 46.6722 33.4294 46.4932 32.8271C46.3141 32.2087 46.2083 31.5739 46.1758 30.9229C46.1432 30.2555 46.127 29.6777 46.127 29.1895C46.127 27.334 46.1839 25.4948 46.2979 23.6719C46.4281 21.849 46.5664 20.0179 46.7129 18.1787C46.7129 18.1299 46.7129 18.0648 46.7129 17.9834C46.7292 17.902 46.7373 17.8369 46.7373 17.7881C46.7536 17.5602 46.7699 17.3486 46.7861 17.1533C46.8024 16.958 46.8431 16.7708 46.9082 16.5918V16.6162C46.9733 16.3558 47.0628 16.1686 47.1768 16.0547C47.307 15.9408 47.5023 15.8838 47.7627 15.8838C48.0068 15.8838 48.251 15.9326 48.4951 16.0303C48.7393 16.1117 48.959 16.2337 49.1543 16.3965C49.3496 16.543 49.5042 16.722 49.6182 16.9336C49.7484 17.1452 49.8135 17.3812 49.8135 17.6416C49.8135 17.7718 49.8135 17.9264 49.8135 18.1055C49.8135 18.2845 49.8053 18.4391 49.7891 18.5693C49.7891 18.6833 49.7809 18.8298 49.7646 19.0088C49.7646 19.1715 49.7646 19.3099 49.7646 19.4238C49.6344 20.9863 49.5368 22.5407 49.4717 24.0869C49.4066 25.6169 49.374 27.1712 49.374 28.75C49.374 29.1895 49.374 29.6289 49.374 30.0684C49.3903 30.5078 49.4391 30.9473 49.5205 31.3867C50.0576 30.7031 50.5215 29.8324 50.9121 28.7744C51.3027 27.7002 51.6283 26.569 51.8887 25.3809C52.1654 24.1764 52.3851 22.9883 52.5479 21.8164C52.7269 20.6283 52.8571 19.5785 52.9385 18.667C52.9385 18.6182 52.9385 18.5612 52.9385 18.4961C52.9548 18.431 52.9629 18.374 52.9629 18.3252C52.9792 18.1462 52.9954 17.9753 53.0117 17.8125C53.028 17.6497 53.085 17.4951 53.1826 17.3486C53.1826 17.2021 53.1908 17.0475 53.207 16.8848C53.2233 16.722 53.264 16.5755 53.3291 16.4453C53.3942 16.2988 53.4837 16.1849 53.5977 16.1035C53.7279 16.0221 53.9069 15.9814 54.1348 15.9814C54.7858 15.9814 55.2985 16.1849 55.6729 16.5918C56.0472 16.9824 56.2507 17.487 56.2832 18.1055C56.3646 18.2357 56.4215 18.3659 56.4541 18.4961C56.5029 18.61 56.5273 18.7402 56.5273 18.8867ZM70.248 34.2432C70.248 34.4222 70.2074 34.5768 70.126 34.707C70.0446 34.821 69.9388 34.9186 69.8086 35C69.6947 35.0651 69.5645 35.1139 69.418 35.1465C69.2878 35.179 69.1576 35.1953 69.0273 35.1953C68.832 35.1953 68.6204 35.1709 68.3926 35.1221C68.1647 35.0732 67.9368 35.0081 67.709 34.9268C67.4811 34.8291 67.2695 34.7152 67.0742 34.585C66.8952 34.4385 66.7568 34.2757 66.6592 34.0967C66.5615 33.9176 66.4883 33.6979 66.4395 33.4375C66.4069 33.1608 66.3743 32.8841 66.3418 32.6074C66.179 32.998 65.9837 33.3805 65.7559 33.7549C65.5443 34.1292 65.2839 34.4629 64.9746 34.7559C64.6654 35.0326 64.3154 35.2523 63.9248 35.415C63.5505 35.5941 63.1273 35.6836 62.6553 35.6836C61.8252 35.6836 61.1497 35.4883 60.6289 35.0977C60.1243 34.707 59.7256 34.2188 59.4326 33.6328C59.1559 33.0306 58.9688 32.3796 58.8711 31.6797C58.7897 30.9635 58.749 30.2799 58.749 29.6289C58.749 29.0918 58.7734 28.4814 58.8223 27.7979C58.8711 27.1143 58.9362 26.4144 59.0176 25.6982C59.099 24.9821 59.1966 24.2904 59.3105 23.623C59.4245 22.9395 59.5465 22.3372 59.6768 21.8164C59.8395 21.2142 60.0348 20.555 60.2627 19.8389C60.5068 19.1064 60.8079 18.431 61.166 17.8125C61.5404 17.1777 61.9961 16.6406 62.5332 16.2012C63.0703 15.7617 63.7132 15.5176 64.4619 15.4688C64.4131 14.1504 64.3398 12.9378 64.2422 11.8311C64.1608 10.708 64.0713 9.56055 63.9736 8.38867L63.7295 5.67871L63.6318 4.70215C63.5993 4.44173 63.5749 4.18132 63.5586 3.9209C63.5423 3.64421 63.5342 3.37565 63.5342 3.11523C63.5342 2.74089 63.6318 2.48047 63.8271 2.33398C64.0387 2.1875 64.3073 2.11426 64.6328 2.11426C65.349 2.11426 65.8942 2.22005 66.2686 2.43164C66.6429 2.64323 66.9033 2.92806 67.0498 3.28613C67.2126 3.64421 67.3021 4.06738 67.3184 4.55566C67.3346 5.02767 67.3428 5.54036 67.3428 6.09375C67.3428 6.45182 67.3835 6.85872 67.4648 7.31445L67.5869 8.21777L67.7822 10.708C67.8148 11.0986 67.8473 11.4893 67.8799 11.8799C67.9124 12.2705 67.945 12.6611 67.9775 13.0518L68.4902 18.3008L69.4668 28.1152L69.54 29.0186C69.6051 29.6859 69.6621 30.3776 69.7109 31.0938C69.776 31.8099 69.89 32.5179 70.0527 33.2178C70.1016 33.3968 70.1423 33.5677 70.1748 33.7305C70.2236 33.8932 70.248 34.0641 70.248 34.2432ZM64.5596 19.9609C64.5596 19.7819 64.5514 19.5866 64.5352 19.375C64.5352 19.1471 64.5352 18.9355 64.5352 18.7402V18.0811C64.4212 18.2438 64.2747 18.4717 64.0957 18.7646C63.9167 19.0413 63.7783 19.2936 63.6807 19.5215C63.4202 20.0911 63.1842 20.8236 62.9727 21.7188C62.7611 22.5977 62.5739 23.5254 62.4111 24.502C62.2646 25.4622 62.1507 26.4062 62.0693 27.334C61.988 28.2454 61.9473 29.0104 61.9473 29.6289C61.9473 29.8568 61.9473 30.1172 61.9473 30.4102C61.9635 30.7031 61.9961 31.0042 62.0449 31.3135C62.0938 31.6064 62.167 31.8913 62.2646 32.168C62.3623 32.4447 62.4925 32.6725 62.6553 32.8516C62.8994 32.5423 63.1191 32.0703 63.3145 31.4355C63.5098 30.7845 63.6725 30.0521 63.8027 29.2383C63.9492 28.4082 64.0713 27.5374 64.1689 26.626C64.2666 25.7145 64.3398 24.8356 64.3887 23.9893C64.4538 23.1266 64.4945 22.3454 64.5107 21.6455C64.5433 20.9294 64.5596 20.3678 64.5596 19.9609ZM82.6016 24.9902C82.6016 26.4062 82.4795 27.8223 82.2354 29.2383C82.0075 30.638 81.5273 31.9645 80.7949 33.2178C80.5671 33.5921 80.3066 33.9583 80.0137 34.3164C79.7207 34.6582 79.3952 34.9674 79.0371 35.2441C78.6953 35.5371 78.3128 35.765 77.8896 35.9277C77.4827 36.1068 77.0514 36.1963 76.5957 36.1963C75.8796 36.1963 75.2529 36.0254 74.7158 35.6836C74.195 35.3581 73.7393 34.9268 73.3486 34.3896C72.9743 33.8363 72.6569 33.2178 72.3965 32.5342C72.1523 31.8343 71.957 31.1263 71.8105 30.4102C71.6803 29.6777 71.5827 28.9697 71.5176 28.2861C71.4688 27.6025 71.4443 27.0003 71.4443 26.4795C71.4443 25.8936 71.4688 25.2507 71.5176 24.5508C71.5664 23.8509 71.6478 23.1348 71.7617 22.4023C71.8919 21.6699 72.0547 20.9456 72.25 20.2295C72.4616 19.5133 72.7301 18.846 73.0557 18.2275C73.3812 17.5928 73.7718 17.0312 74.2275 16.543C74.6833 16.0384 75.2122 15.6396 75.8145 15.3467V15.3711C76.3353 15.0944 76.8561 14.9561 77.377 14.9561C77.7025 14.9561 77.9548 15.0293 78.1338 15.1758C78.3128 15.306 78.3942 15.5339 78.3779 15.8594C79.2731 16.0221 79.9974 16.4535 80.5508 17.1533C81.1042 17.8532 81.5273 18.667 81.8203 19.5947C82.1296 20.5225 82.333 21.4746 82.4307 22.4512C82.5446 23.4277 82.6016 24.2741 82.6016 24.9902ZM77.084 18.8867C76.8073 18.8867 76.5469 18.7809 76.3027 18.5693C75.9935 19.0413 75.7331 19.5866 75.5215 20.2051C75.3099 20.8073 75.139 21.4339 75.0088 22.085C74.8949 22.7197 74.8135 23.3626 74.7646 24.0137C74.7158 24.6647 74.6914 25.2751 74.6914 25.8447C74.6914 26.3167 74.7158 26.9271 74.7646 27.6758C74.8135 28.4082 74.903 29.1488 75.0332 29.8975C75.1797 30.6462 75.375 31.346 75.6191 31.9971C75.8796 32.6481 76.2132 33.1283 76.6201 33.4375C77.1247 33.1445 77.5397 32.6807 77.8652 32.0459C78.207 31.3949 78.4756 30.6868 78.6709 29.9219C78.8662 29.1569 78.9964 28.3838 79.0615 27.6025C79.1429 26.8213 79.1836 26.154 79.1836 25.6006C79.1836 25.1937 79.1592 24.6647 79.1104 24.0137C79.0615 23.3626 78.9801 22.7035 78.8662 22.0361C78.7523 21.3525 78.5895 20.7178 78.3779 20.1318C78.1826 19.5459 77.9303 19.1064 77.6211 18.8135C77.4746 18.8623 77.2956 18.8867 77.084 18.8867ZM96.3711 35.3662C96.3711 35.5452 96.2734 35.708 96.0781 35.8545C95.8828 36.001 95.6549 36.123 95.3945 36.2207C95.1504 36.3184 94.8981 36.3916 94.6377 36.4404C94.3773 36.5055 94.1738 36.5381 94.0273 36.5381C93.7507 36.5381 93.4984 36.4811 93.2705 36.3672C93.0426 36.2695 92.8311 36.1393 92.6357 35.9766C92.4404 35.8138 92.2533 35.6348 92.0742 35.4395C91.9115 35.2441 91.7568 35.0488 91.6104 34.8535C91.0407 34.1536 90.4548 33.3724 89.8525 32.5098C89.2503 31.6471 88.7132 30.8252 88.2412 30.0439C88.2412 30.109 88.2493 30.1904 88.2656 30.2881C88.2819 30.3857 88.29 30.4671 88.29 30.5322C88.3226 30.874 88.347 31.2158 88.3633 31.5576C88.3958 31.8831 88.4365 32.2168 88.4854 32.5586C88.5016 32.7539 88.5179 32.9492 88.5342 33.1445C88.5667 33.3236 88.5993 33.5189 88.6318 33.7305C88.6644 33.9909 88.6969 34.2513 88.7295 34.5117C88.762 34.7721 88.7783 35.0407 88.7783 35.3174C88.7783 35.6592 88.6807 35.887 88.4854 36.001C88.29 36.1312 88.0296 36.1963 87.7041 36.1963C87.4762 36.1963 87.2321 36.18 86.9717 36.1475C86.7113 36.1149 86.459 36.0498 86.2148 35.9521C85.9707 35.8545 85.751 35.7243 85.5557 35.5615C85.3604 35.3988 85.2139 35.1872 85.1162 34.9268C85.0674 34.7314 85.0186 34.3652 84.9697 33.8281C84.9209 33.291 84.8802 32.6969 84.8477 32.0459C84.8151 31.3786 84.7826 30.7113 84.75 30.0439C84.7337 29.3766 84.7174 28.8232 84.7012 28.3838C84.7012 28.2861 84.693 28.2048 84.6768 28.1396C84.6768 28.0745 84.6768 28.0094 84.6768 27.9443C84.5465 27.8304 84.4326 27.6921 84.335 27.5293C84.2373 27.3665 84.1885 27.2119 84.1885 27.0654C84.1885 26.8538 84.2292 26.6667 84.3105 26.5039C84.3919 26.3411 84.4814 26.1865 84.5791 26.04C84.4814 24.0381 84.4326 22.0443 84.4326 20.0586C84.4326 18.4147 84.4489 16.7871 84.4814 15.1758C84.5303 13.5482 84.571 11.9206 84.6035 10.293L84.6768 7.02148C84.693 6.85872 84.7012 6.64714 84.7012 6.38672C84.7012 6.1263 84.7012 5.84961 84.7012 5.55664C84.7012 5.19857 84.7012 4.82422 84.7012 4.43359C84.7012 4.04297 84.7093 3.67676 84.7256 3.33496C84.7419 2.99316 84.7581 2.68392 84.7744 2.40723C84.7907 2.13053 84.8232 1.92708 84.8721 1.79688V1.82129C84.9372 1.57715 85.0267 1.39811 85.1406 1.28418C85.2546 1.17025 85.4499 1.11328 85.7266 1.11328C86.4102 1.11328 86.9391 1.31673 87.3135 1.72363C87.6878 2.13053 87.875 2.67578 87.875 3.35938C87.875 4.44987 87.8669 5.54036 87.8506 6.63086C87.8506 7.70508 87.8424 8.78743 87.8262 9.87793C87.8099 10.9684 87.7936 12.0589 87.7773 13.1494C87.7773 14.2236 87.7773 15.306 87.7773 16.3965C87.7773 16.7871 87.7773 17.1859 87.7773 17.5928C87.7936 17.9834 87.8018 18.3822 87.8018 18.7891C87.818 19.1146 87.8262 19.4482 87.8262 19.79C87.8262 20.1318 87.8262 20.4899 87.8262 20.8643L90.4629 16.665V16.6895L90.6826 16.25C90.7314 16.1686 90.7559 16.1117 90.7559 16.0791C90.7721 16.0465 90.7884 16.0059 90.8047 15.957C90.8372 15.8919 90.8942 15.7943 90.9756 15.6641C91.0732 15.5339 91.236 15.3385 91.4639 15.0781C91.5452 14.9967 91.6429 14.9235 91.7568 14.8584C91.8708 14.7933 92.0173 14.7607 92.1963 14.7607C92.3753 14.7607 92.5544 14.8177 92.7334 14.9316C92.9287 15.0293 93.0996 15.1595 93.2461 15.3223C93.3926 15.485 93.5146 15.6641 93.6123 15.8594C93.71 16.0547 93.7588 16.2337 93.7588 16.3965C93.7588 16.5267 93.6855 16.7546 93.5391 17.0801C93.3926 17.3893 93.1973 17.7718 92.9531 18.2275C92.7253 18.6833 92.4648 19.1797 92.1719 19.7168C91.8789 20.2376 91.5697 20.7666 91.2441 21.3037C90.9349 21.8408 90.6338 22.3617 90.3408 22.8662C90.0479 23.3708 89.7874 23.8184 89.5596 24.209L88.9248 25.2344C89.2992 25.8854 89.7305 26.6097 90.2188 27.4072C90.7233 28.1885 91.2523 28.9779 91.8057 29.7754C92.359 30.5729 92.9206 31.3379 93.4902 32.0703C94.0762 32.8027 94.6458 33.4456 95.1992 33.999L95.4434 34.1943C95.6387 34.3408 95.8421 34.5199 96.0537 34.7314C96.2653 34.9268 96.3711 35.1383 96.3711 35.3662ZM105.404 36.6602C105.404 37.3275 105.38 38.0273 105.331 38.7598C105.282 39.4922 105.201 40.2246 105.087 40.957C104.973 41.7057 104.818 42.4382 104.623 43.1543C104.428 43.8704 104.184 44.5378 103.891 45.1562C103.402 46.0677 102.784 46.8652 102.035 47.5488C101.303 48.2487 100.497 48.8346 99.6182 49.3066C98.7393 49.7786 97.8034 50.1367 96.8105 50.3809C95.8177 50.625 94.8167 50.7471 93.8076 50.7471C93.6611 50.7471 93.4902 50.7389 93.2949 50.7227C93.0833 50.7064 92.8799 50.6657 92.6846 50.6006C92.4893 50.5518 92.3265 50.4622 92.1963 50.332C92.0661 50.2018 92.001 50.0228 92.001 49.7949C92.001 49.6973 92.0254 49.5996 92.0742 49.502C92.0742 49.4694 92.0824 49.4368 92.0986 49.4043C92.0986 49.388 92.0986 49.3717 92.0986 49.3555C92.2126 49.0299 92.3428 48.7695 92.4893 48.5742C92.6357 48.3789 92.8066 48.2243 93.002 48.1104C93.181 48.0127 93.4007 47.9395 93.6611 47.8906C93.9053 47.8581 94.1901 47.8255 94.5156 47.793C95.5573 47.7441 96.542 47.5 97.4697 47.0605V47.085C98.5277 46.5641 99.3577 45.9131 99.96 45.1318C100.578 44.3669 101.042 43.5124 101.352 42.5684C101.677 41.6406 101.881 40.6559 101.962 39.6143C102.043 38.5726 102.084 37.5228 102.084 36.4648C102.084 36.2207 102.084 36.0417 102.084 35.9277C102.084 35.8138 102.084 35.708 102.084 35.6104C102.084 35.529 102.084 35.4313 102.084 35.3174C102.084 35.2035 102.076 35.0244 102.06 34.7803C101.49 35.2197 100.896 35.4395 100.277 35.4395C99.5612 35.4395 98.9508 35.2441 98.4463 34.8535C97.958 34.4466 97.543 33.9258 97.2012 33.291C96.8757 32.64 96.6152 31.9076 96.4199 31.0938C96.2409 30.2637 96.1025 29.4255 96.0049 28.5791C95.9235 27.7165 95.8665 26.8783 95.834 26.0645C95.8177 25.2507 95.8096 24.5264 95.8096 23.8916V22.8662C95.8096 22.0036 95.8096 21.1572 95.8096 20.3271C95.8258 19.4971 95.8584 18.667 95.9072 17.8369V17.4707C95.9072 17.2754 95.9072 17.0801 95.9072 16.8848C95.9072 16.6895 95.9235 16.5023 95.9561 16.3232C96.0212 16.0628 96.1107 15.8757 96.2246 15.7617C96.3548 15.6478 96.5583 15.5908 96.835 15.5908C96.9652 15.5908 97.0872 15.599 97.2012 15.6152C97.3314 15.6315 97.4616 15.6559 97.5918 15.6885C97.901 15.8187 98.1452 15.957 98.3242 16.1035C98.5033 16.2337 98.6335 16.3965 98.7148 16.5918C98.8125 16.7708 98.8695 16.9824 98.8857 17.2266C98.9183 17.4707 98.9346 17.7555 98.9346 18.0811V21.3525C98.9346 21.7432 98.9346 22.2314 98.9346 22.8174C98.9508 23.387 98.9753 24.0137 99.0078 24.6973C99.0404 25.3809 99.0811 26.0889 99.1299 26.8213C99.1787 27.5537 99.252 28.2617 99.3496 28.9453C99.4473 29.6289 99.5612 30.2555 99.6914 30.8252C99.8216 31.3949 99.9844 31.8669 100.18 32.2412C100.473 31.6064 100.725 30.8659 100.937 30.0195C101.148 29.1569 101.319 28.2373 101.449 27.2607C101.596 26.2679 101.701 25.2507 101.767 24.209C101.848 23.1673 101.905 22.1501 101.938 21.1572C101.986 20.1644 102.011 19.2285 102.011 18.3496C102.027 17.4544 102.035 16.6732 102.035 16.0059C102.035 15.8431 102.035 15.6722 102.035 15.4932C102.051 15.2979 102.092 15.127 102.157 14.9805C102.222 14.8177 102.312 14.6875 102.426 14.5898C102.556 14.4922 102.743 14.4434 102.987 14.4434C103.101 14.4434 103.223 14.4596 103.354 14.4922C103.5 14.5247 103.622 14.5573 103.72 14.5898C103.752 14.5898 103.785 14.598 103.817 14.6143C103.866 14.6143 103.907 14.6143 103.939 14.6143C104.167 14.6956 104.387 14.777 104.599 14.8584C104.81 14.9398 104.989 15.0456 105.136 15.1758C105.299 15.2897 105.421 15.4443 105.502 15.6396C105.6 15.835 105.648 16.0872 105.648 16.3965C105.648 16.7708 105.64 17.2021 105.624 17.6904C105.624 18.1624 105.608 18.6589 105.575 19.1797C105.559 19.7005 105.535 20.2132 105.502 20.7178C105.469 21.2061 105.437 21.6455 105.404 22.0361L105.307 22.8906C105.274 23.1185 105.25 23.3464 105.233 23.5742C105.217 23.8021 105.209 24.0137 105.209 24.209C105.209 25.2507 105.217 26.2923 105.233 27.334C105.25 28.3594 105.274 29.3929 105.307 30.4346C105.339 31.4762 105.364 32.5179 105.38 33.5596C105.396 34.585 105.404 35.6185 105.404 36.6602Z" fill="black"/>
</svg>
