<svg width="30" height="30" viewBox="0 0 30 30" fill="none" xmlns="http://www.w3.org/2000/svg">
<path d="M29.4049 6.78679C29.4157 6.82678 29.4212 6.86802 29.4213 6.90945V13.3489C29.4213 13.4315 29.3995 13.5127 29.358 13.5842C29.3166 13.6557 29.257 13.7151 29.1854 13.7562L23.7806 16.8679V23.0356C23.7806 23.2034 23.6914 23.3584 23.5459 23.4429L12.264 29.9375C12.2382 29.9521 12.21 29.9615 12.1818 29.9715C12.1713 29.975 12.1613 29.9815 12.1501 29.9844C12.0713 30.0052 11.9884 30.0052 11.9095 29.9844C11.8966 29.9809 11.8848 29.9739 11.8725 29.9692C11.8467 29.9598 11.8197 29.9516 11.795 29.9375L0.515504 23.4429C0.443848 23.4017 0.384309 23.3424 0.342888 23.2709C0.301468 23.1994 0.279628 23.1182 0.279572 23.0356L0.279572 3.71732C0.279572 3.67507 0.28544 3.63398 0.296005 3.59407C0.299526 3.58057 0.307743 3.56825 0.312438 3.55475C0.321241 3.5301 0.329458 3.50487 0.342369 3.48198C0.351173 3.46672 0.364084 3.45439 0.374649 3.44031C0.388147 3.42153 0.400472 3.40216 0.416318 3.38573C0.429817 3.37223 0.447424 3.36225 0.462683 3.35051C0.479703 3.33643 0.494962 3.32117 0.51433 3.31002H0.514917L6.15498 0.0627223C6.2264 0.0216281 6.30735 0 6.38974 0C6.47214 0 6.55309 0.0216281 6.6245 0.0627223L12.2646 3.31002H12.2657C12.2845 3.32175 12.3004 3.33643 12.3174 3.34992C12.3326 3.36166 12.3497 3.37223 12.3632 3.38514C12.3796 3.40216 12.3913 3.42153 12.4054 3.44031C12.4154 3.45439 12.4289 3.46672 12.4371 3.48198C12.4506 3.50545 12.4582 3.5301 12.4676 3.55475C12.4723 3.56825 12.4805 3.58057 12.4841 3.59466C12.4949 3.63466 12.5004 3.67589 12.5005 3.71732V15.7833L17.2004 13.0771V6.90886C17.2004 6.86778 17.2062 6.82611 17.2168 6.78679C17.2209 6.7727 17.2285 6.76038 17.2332 6.74688C17.2426 6.72223 17.2508 6.69699 17.2637 6.6741C17.2725 6.65884 17.2855 6.64652 17.2954 6.63243C17.3095 6.61365 17.3213 6.59428 17.3377 6.57785C17.3512 6.56435 17.3682 6.55437 17.3835 6.54264C17.4011 6.52855 17.4163 6.51329 17.4351 6.50214H17.4357L23.0764 3.25485C23.1478 3.2137 23.2287 3.19204 23.3111 3.19204C23.3935 3.19204 23.4745 3.2137 23.5459 3.25485L29.1859 6.50214C29.2059 6.51388 29.2212 6.52855 29.2388 6.54205C29.2534 6.55379 29.2705 6.56435 29.284 6.57726C29.3004 6.59428 29.3121 6.61365 29.3262 6.63243C29.3368 6.64652 29.3497 6.65884 29.3579 6.6741C29.3714 6.69699 29.379 6.72223 29.3884 6.74688C29.3937 6.76038 29.4013 6.7727 29.4049 6.78679V6.78679ZM28.4811 13.0771V7.7223L26.5073 8.85853L23.7806 10.4285V15.7833L28.4817 13.0771H28.4811ZM22.841 22.7638V17.4055L20.1589 18.9373L12.4999 23.3085V28.7173L22.841 22.7638ZM1.21978 4.53017L1.21978 22.7638L11.5597 28.7167V23.3091L6.15792 20.2519L6.15616 20.2508L6.15381 20.2496C6.13562 20.239 6.12036 20.2238 6.10334 20.2108C6.08866 20.1991 6.07164 20.1897 6.05873 20.1768L6.05756 20.175C6.0423 20.1604 6.03174 20.1422 6.01882 20.1257C6.00709 20.1099 5.993 20.0964 5.98361 20.08L5.98302 20.0782C5.97246 20.0606 5.966 20.0395 5.95837 20.0195C5.95074 20.0019 5.94077 19.9855 5.93607 19.9667V19.9661C5.9302 19.9438 5.92903 19.9203 5.92668 19.8974C5.92433 19.8798 5.91964 19.8622 5.91964 19.8446L5.91964 7.23635L3.19351 5.66582L1.21978 4.53076V4.53017ZM6.39033 1.01232L1.69106 3.71732L6.38915 6.42232L11.0878 3.71673L6.38915 1.01232H6.39033ZM8.83416 17.8938L11.5603 16.3244V4.53017L9.58656 5.6664L6.85984 7.23635L6.85984 19.0306L8.83416 17.8938ZM23.3111 4.20444L18.6124 6.90945L23.3111 9.61445L28.0092 6.90886L23.3111 4.20444ZM22.841 10.4285L20.1143 8.85853L18.1406 7.7223V13.0771L20.8667 14.6465L22.841 15.7833V10.4285ZM12.0292 22.4956L18.9211 18.5611L22.3662 16.595L17.671 13.8917L12.2652 17.0041L7.33816 19.8405L12.0292 22.4956Z" fill="black"/>
</svg>
