<svg width="30" height="30" viewBox="0 0 30 30" fill="none" xmlns="http://www.w3.org/2000/svg">
<g clip-path="url(#clip0)">
<path fill-rule="evenodd" clip-rule="evenodd" d="M25.1786 25.5693C22.428 28.3057 18.6166 30 14.4046 30C9.71591 30 5.52361 27.9005 2.73841 24.6012C8.70367 29.5179 17.5892 29.2102 23.1889 23.6781C26.9623 19.9504 26.9623 13.9065 23.1889 10.1788C19.4156 6.45109 13.2977 6.45109 9.52438 10.1788C7.90723 11.7764 7.90723 14.3666 9.52438 15.9642C11.1415 17.5618 13.7635 17.5618 15.3806 15.9642C15.9197 15.4317 16.7936 15.4317 17.3327 15.9642C17.8717 16.4968 17.8717 17.3602 17.3327 17.8927C14.6374 20.5554 10.2676 20.5554 7.57231 17.8927C4.87706 15.23 4.87706 10.913 7.57231 8.25034C12.4238 3.45755 20.2895 3.45755 25.141 8.25034C29.9799 13.0307 29.9924 20.7736 25.1786 25.5693ZM26.0707 5.3988C20.1055 0.482129 11.22 0.789819 5.62024 6.32187C1.84688 10.0496 1.84688 16.0935 5.62024 19.8212C9.39359 23.5489 15.5114 23.5489 19.2848 19.8212C20.9019 18.2236 20.9019 15.6334 19.2848 14.0358C17.6676 12.4382 15.0457 12.4382 13.4285 14.0358C12.8895 14.5683 12.0155 14.5683 11.4765 14.0358C10.9374 13.5032 10.9374 12.6398 11.4765 12.1073C14.1717 9.44462 18.5416 9.44462 21.2368 12.1073C23.9321 14.77 23.9321 19.087 21.2368 21.7497C16.3854 26.5425 8.51962 26.5425 3.66816 21.7497C-1.177 16.9631 -1.18328 9.20633 3.64932 4.41205C6.39849 1.68662 10.2022 0 14.4046 0C19.0932 0 23.2855 2.09951 26.0707 5.3988Z" fill="black"/>
</g>
<defs>
<clipPath id="clip0">
<rect width="29.25" height="30" fill="white" transform="translate(0.0295715)"/>
</clipPath>
</defs>
</svg>
