<svg width="34" height="30" viewBox="0 0 34 30" fill="none" xmlns="http://www.w3.org/2000/svg">
<path d="M20.8486 1.52588e-05C35.6124 10.0408 30.8369 21.1137 30.8369 21.1137C30.8369 21.1137 35.0352 25.8542 33.3384 30C33.3384 30 31.6066 27.0962 28.7028 27.0962C25.904 27.0962 24.2597 30 18.627 30C6.08475 30 0.154724 19.5219 0.154724 19.5219C11.455 26.9563 19.1693 21.691 19.1693 21.691C14.0789 18.7347 3.25093 4.6006 3.25093 4.6006C12.6795 12.6298 16.7553 14.7464 16.7553 14.7464C14.3238 12.7347 7.50166 2.90381 7.50166 2.90381C12.9594 8.4315 23.8049 16.1458 23.8049 16.1458C26.8836 7.60935 20.8486 1.52588e-05 20.8486 1.52588e-05Z" fill="black"/>
</svg>
